<svg width="16" height="16" viewBox="0 0 16 16" fill="none" xmlns="http://www.w3.org/2000/svg">
<g clip-path="url(#clip0_18_2078)">
<path d="M6.78634 1.44668L7.12634 1.39334L7.47967 1.35334L7.82634 1.33334H8.17301L8.51967 1.35334L8.87301 1.39334L9.21301 1.44668L8.89967 3.14668L9.18634 3.21334L9.47301 3.29334L9.75301 3.38668L10.0263 3.50001L10.2863 3.62668L10.5463 3.77334L10.793 3.93334L11.773 2.50668L12.0597 2.71334L12.3263 2.93334L12.5863 3.16668L12.833 3.41334L13.0663 3.67334L13.2863 3.94001L13.493 4.22668L12.0663 5.20668L12.2263 5.45334L12.373 5.71334L12.4997 5.97334L12.613 6.24668L12.7063 6.52668L12.7863 6.81334L12.853 7.10001L14.553 6.78668L14.6063 7.12668L14.6463 7.48001L14.6663 7.82668V8.17334L14.6463 8.52001L14.6063 8.87334L14.553 9.21334L12.853 8.90001L12.7863 9.18668L12.7063 9.47334L12.613 9.75334L12.4997 10.0267L12.373 10.2867L12.2263 10.5467L12.0663 10.7933L13.493 11.7733L13.2863 12.06L13.0663 12.3267L12.833 12.5867L12.5863 12.8333L12.3263 13.0667L12.0597 13.2867L11.773 13.4933L10.793 12.0667L10.5463 12.2267L10.2863 12.3733L10.0263 12.5L9.75301 12.6133L9.47301 12.7067L9.18634 12.7867L8.89967 12.8533L9.21301 14.5533L8.87301 14.6067L8.51967 14.6467L8.17301 14.6667H7.82634L7.47967 14.6467L7.12634 14.6067L6.78634 14.5533L7.09967 12.8533L6.81301 12.7867L6.52634 12.7067L6.24634 12.6133L5.97301 12.5L5.71301 12.3733L5.45301 12.2267L5.20634 12.0667L4.22634 13.4933L3.93967 13.2867L3.67301 13.0667L3.41301 12.8333L3.16634 12.5867L2.93301 12.3267L2.71301 12.06L2.50634 11.7733L3.93301 10.7933L3.77301 10.5467L3.62634 10.2867L3.49967 10.0267L3.38634 9.75334L3.29301 9.47334L3.21301 9.18668L3.14634 8.90001L1.44634 9.21334L1.39301 8.87334L1.35301 8.52001L1.33301 8.17334V7.82668L1.35301 7.48001L1.39301 7.12668L1.44634 6.78668L3.14634 7.10001L3.21301 6.81334L3.29301 6.52668L3.38634 6.24668L3.49967 5.97334L3.62634 5.71334L3.77301 5.45334L3.93301 5.20668L2.50634 4.22668L2.71301 3.94001L2.93301 3.67334L3.16634 3.41334L3.41301 3.16668L3.67301 2.93334L3.93967 2.71334L4.22634 2.50668L5.20634 3.93334L5.45301 3.77334L5.71301 3.62668L5.97301 3.50001L6.24634 3.38668L6.52634 3.29334L6.81301 3.21334L7.09967 3.14668L6.78634 1.44668Z" stroke="white" stroke-width="0.8" stroke-linecap="round" stroke-linejoin="round"/>
<path d="M8.00006 10.2667C9.25191 10.2667 10.2667 9.25185 10.2667 8C10.2667 6.74816 9.25191 5.73334 8.00006 5.73334C6.74822 5.73334 5.7334 6.74816 5.7334 8C5.7334 9.25185 6.74822 10.2667 8.00006 10.2667Z" stroke="white" stroke-width="0.8" stroke-linecap="round" stroke-linejoin="round"/>
</g>
<defs>
<clipPath id="clip0_18_2078">
<rect width="16" height="16" fill="white"/>
</clipPath>
</defs>
</svg>
